<?xml version="1.0" encoding="utf-8"?>
<!-- Generator: Adobe Illustrator 15.1.0, SVG Export Plug-In . SVG Version: 6.00 Build 0)  -->
<!DOCTYPE svg PUBLIC "-//W3C//DTD SVG 1.1//EN" "http://www.w3.org/Graphics/SVG/1.1/DTD/svg11.dtd">
<svg version="1.1" xmlns="http://www.w3.org/2000/svg" xmlns:xlink="http://www.w3.org/1999/xlink" x="0px" y="0px"
	 width="246.333px" height="212px" viewBox="0 0 246.333 212" enable-background="new 0 0 246.333 212" xml:space="preserve">
<g id="Layer_2">
	<defs>
		<polygon id="SVGID_1_" points="62.983,209.179 3.304,105.812 62.983,2.445 182.342,2.445 242.021,105.812 182.342,209.179 		"/>
	</defs>
	<clipPath id="SVGID_2_">
		<use xlink:href="#SVGID_1_"  overflow="visible"/>
	</clipPath>
	<polygon clip-path="url(#SVGID_2_)" fill="none" points="63.039,209.179 3.36,105.812 63.039,2.445 182.397,2.445 242.077,105.812 
		182.397,209.179 	"/>
	<defs>
		<filter id="Adobe_OpacityMaskFilter" filterUnits="userSpaceOnUse" x="-61.627" y="46.294" width="320.242" height="204.034">
			
				<feColorMatrix  type="matrix" values="-1 0 0 0 1  0 -1 0 0 1  0 0 -1 0 1  0 0 0 1 0" color-interpolation-filters="sRGB" result="source"/>
			<feFlood  style="flood-color:white;flood-opacity:1" result="back"/>
			<feBlend  in="source" in2="back" mode="normal"/>
		</filter>
	</defs>
	<mask maskUnits="userSpaceOnUse" x="-61.627" y="46.294" width="320.242" height="204.034" id="Layer_5_1_">
		<g filter="url(#Adobe_OpacityMaskFilter)">
			<path clip-path="url(#SVGID_2_)" fill="#FFFFFF" d="M122.663,164.199L182,61.425l-118.674,0L122.663,164.199z M122.663,133.579
				L90.199,77.35h64.928L122.663,133.579z"/>
		</g>
	</mask>
	<g id="Layer_5" clip-path="url(#SVGID_2_)" mask="url(#Layer_5_1_)">
		<circle fill="none" stroke="#FFFFFF" stroke-width="2" stroke-miterlimit="10" cx="175.177" cy="166.891" r="82.438"/>
		<defs>
			<filter id="Adobe_OpacityMaskFilter_1_" filterUnits="userSpaceOnUse" x="-61.627" y="46.294" width="195.701" height="195.701">
				
					<feColorMatrix  type="matrix" values="-1 0 0 0 1  0 -1 0 0 1  0 0 -1 0 1  0 0 0 1 0" color-interpolation-filters="sRGB" result="source"/>
				<feFlood  style="flood-color:white;flood-opacity:1" result="back"/>
				<feBlend  in="source" in2="back" mode="normal"/>
			</filter>
		</defs>
		<mask maskUnits="userSpaceOnUse" x="-61.627" y="46.294" width="195.701" height="195.701" id="Layer_5_1_">
			<g filter="url(#Adobe_OpacityMaskFilter_1_)">
				<circle fill="#FFFFFF" cx="175.177" cy="166.891" r="82.438"/>
			</g>
		</mask>
		<circle fill="none" stroke="#FFFFFF" stroke-width="2" stroke-miterlimit="10" cx="36.223" cy="144.145" r="96.85"/>
	</g>
	<g clip-path="url(#SVGID_2_)">
	</g>
	<path clip-path="url(#SVGID_2_)" fill="none" stroke="#FFFFFF" stroke-width="2" stroke-miterlimit="10" d="M122.663,164.199
		L182,61.425l-118.674,0L122.663,164.199z M122.663,133.579L90.199,77.35h64.928L122.663,133.579z"/>
</g>
<g id="Layer_3">
	<polygon fill="none" stroke="#FFFFFF" stroke-width="2" stroke-miterlimit="10" points="63.039,209.179 3.36,105.812 63.039,2.445 
		182.397,2.445 242.076,105.812 182.397,209.179 	"/>
</g>
</svg>
